<svg width="1024" height="1024" viewBox="0 0 1024 1024" fill="none" xmlns="http://www.w3.org/2000/svg">
<g clip-path="url(#clip0_611_2)">
<path d="M259.664 1020.38C220.057 1019.93 180.822 1012.67 143.681 998.902C116.56 988.877 92.0216 972.917 71.8607 952.189C51.0772 932.069 35.0939 907.524 25.098 880.379C11.3418 843.24 4.08779 804.008 3.65427 764.406C0.612392 698.569 0 678.822 0 512C0 345.178 0.672627 325.501 3.62416 259.614C4.11028 220.027 11.3732 180.816 25.098 143.681C35.1426 116.555 51.1032 92.0073 71.8205 71.8205C91.9565 51.0557 116.506 35.0873 143.651 25.098C180.791 11.3304 220.027 4.06617 259.634 3.62416C325.491 0.612392 345.269 0 512 0C678.731 0 698.498 0.672627 764.386 3.62416C803.983 4.10685 843.205 11.3699 880.349 25.098C907.482 35.1005 932.025 51.0633 952.169 71.8105C972.923 91.9617 988.892 116.511 998.902 143.651C1012.67 180.791 1019.94 220.026 1020.39 259.634C1023.4 325.522 1024.01 345.249 1024.01 512.02C1024.01 678.791 1023.4 698.519 1020.39 764.406C1019.91 804.008 1012.64 843.234 998.902 880.379C988.509 907.316 972.591 931.778 952.173 952.191C931.755 972.604 907.288 988.516 880.349 998.902C843.209 1012.67 803.974 1019.94 764.366 1020.39C698.539 1023.4 678.751 1024.01 511.98 1024.01C345.208 1024.01 325.481 1023.43 259.654 1020.39" fill="url(#paint0_radial_611_2)"/>
<path d="M259.664 1020.38C220.057 1019.93 180.822 1012.67 143.681 998.902C116.56 988.877 92.0216 972.917 71.8607 952.189C51.0772 932.069 35.0939 907.524 25.098 880.379C11.3418 843.24 4.08779 804.008 3.65427 764.406C0.612392 698.569 0 678.822 0 512C0 345.178 0.672627 325.501 3.62416 259.614C4.11028 220.027 11.3732 180.816 25.098 143.681C35.1426 116.555 51.1032 92.0073 71.8205 71.8205C91.9565 51.0557 116.506 35.0873 143.651 25.098C180.791 11.3304 220.027 4.06617 259.634 3.62416C325.491 0.612392 345.269 0 512 0C678.731 0 698.498 0.672627 764.386 3.62416C803.983 4.10685 843.205 11.3699 880.349 25.098C907.482 35.1005 932.025 51.0633 952.169 71.8105C972.923 91.9617 988.892 116.511 998.902 143.651C1012.67 180.791 1019.94 220.026 1020.39 259.634C1023.4 325.522 1024.01 345.249 1024.01 512.02C1024.01 678.791 1023.4 698.519 1020.39 764.406C1019.91 804.008 1012.64 843.234 998.902 880.379C988.509 907.316 972.591 931.778 952.173 952.191C931.755 972.604 907.288 988.516 880.349 998.902C843.209 1012.67 803.974 1019.94 764.366 1020.39C698.539 1023.4 678.751 1024.01 511.98 1024.01C345.208 1024.01 325.481 1023.43 259.654 1020.39" fill="url(#paint1_radial_611_2)"/>
<path d="M232.139 416.2V487.8H349.339V530.6H232.139V617.8H357.339V663H176.139V371H357.339V416.2H232.139ZM583.667 429C559.401 417 533.401 411 505.667 411C490.734 411 479.267 414.2 471.267 420.6C463.267 427 459.267 435.533 459.267 446.2C459.267 465.133 473.001 478.467 500.467 486.2C537.801 496.6 564.067 509.267 579.267 524.2C594.734 539.133 602.467 558.467 602.467 582.2C602.467 609.667 593.401 630.733 575.267 645.4C557.134 659.8 530.867 667 496.467 667C461.534 667 430.201 658.333 402.467 641L416.467 596.2C442.067 613.533 469.134 622.2 497.667 622.2C513.401 622.2 525.267 618.867 533.267 612.2C541.534 605.267 545.667 595.533 545.667 583C545.667 571.533 542.334 562.467 535.667 555.8C529.267 549.133 517.534 543.267 500.467 538.2C466.334 528.333 441.534 515.933 426.067 501C410.867 486.067 403.267 467.8 403.267 446.2C403.267 422.2 412.067 403 429.667 388.6C447.534 374.2 472.467 367 504.467 367C537.534 367 567.801 373.267 595.267 385.8L583.667 429ZM663.827 663V371H725.027V663H663.827Z" fill="white"/>
<path d="M918.23 336L785.307 439.923V232.077L918.23 336Z" fill="#12C6FF"/>
<path fill-rule="evenodd" clip-rule="evenodd" d="M858 396.919L935.917 336.001L858 275.084V250L968 336.001L858 422.002V396.919Z" fill="#12C6FF"/>
<path fill-rule="evenodd" clip-rule="evenodd" d="M928 379.85L984.666 335.546L928 291.243V273L1008 335.546L928 398.093V379.85Z" fill="#12C6FF"/>
<path fill-rule="evenodd" clip-rule="evenodd" d="M298.992 195.951L283 202.223L283.027 202.293C230.152 222.805 183.155 256.259 146.411 299.699C105.967 347.513 79.5149 405.568 69.9713 467.461C60.4278 529.355 68.1639 592.682 92.3265 650.457C116.489 708.233 156.139 758.213 206.904 794.885C210.908 797.777 214.968 800.577 219.082 803.285L224.58 794.932L225.478 793.566C228.266 795.391 231.083 797.175 233.928 798.917L233.016 800.303C280.805 829.719 335.359 846.492 391.532 848.958C451.038 851.569 510.142 838.026 562.575 809.765C615.007 781.504 658.813 739.578 689.346 688.435C705.192 661.893 717.156 633.382 725 603.768V663.286C719.015 676.542 712.191 689.456 704.549 701.946C670.903 756.936 622.722 801.565 565.322 830.91C507.922 860.256 443.532 873.178 379.253 868.251C314.975 863.325 253.306 840.741 201.048 802.991C148.791 765.241 107.974 713.791 83.1009 654.316C58.2276 594.841 50.2639 529.651 60.0881 465.938C69.9123 402.224 97.1428 342.461 138.776 293.241C178.254 246.569 229.229 211.095 286.581 190.278C289.698 189.146 292.834 188.058 295.988 187.014L296.03 187L298.992 195.951Z" fill="white"/>
<path d="M734.034 280C734.034 303.274 715.167 322.141 691.893 322.141C668.619 322.141 649.752 303.274 649.752 280C649.752 256.726 668.619 237.859 691.893 237.859C715.167 237.859 734.034 256.726 734.034 280Z" fill="white"/>
<path fill-rule="evenodd" clip-rule="evenodd" d="M736.534 280C736.534 304.654 716.547 324.641 691.893 324.641C667.238 324.641 647.252 304.654 647.252 280C647.252 255.345 667.238 235.359 691.893 235.359C716.547 235.359 736.534 255.345 736.534 280ZM691.893 322.141C715.167 322.141 734.034 303.274 734.034 280C734.034 256.726 715.167 237.859 691.893 237.859C668.619 237.859 649.752 256.726 649.752 280C649.752 303.274 668.619 322.141 691.893 322.141Z" fill="#12C6FF"/>
<path fill-rule="evenodd" clip-rule="evenodd" d="M686.893 317.141C710.167 317.141 729.034 298.274 729.034 275C729.034 264.636 725.292 255.146 719.087 247.806C728.229 255.536 734.034 267.09 734.034 280C734.034 303.274 715.167 322.141 691.893 322.141C678.983 322.141 667.429 316.336 659.699 307.194C667.039 313.399 676.529 317.141 686.893 317.141Z" fill="#12C6FF"/>
<path d="M702.325 301.337C735.906 281.949 757.615 256.678 750.811 244.894C746.699 237.772 733.115 237.206 715.597 242.152C717.945 243.671 720.438 245.665 721.392 246.472C730.375 244.91 736.898 245.859 739.129 249.725C744.081 258.303 726.031 277.998 698.811 293.713C671.591 309.429 645.509 315.214 640.556 306.636C638.158 302.482 641.154 295.721 647.972 288.069C647.501 285.633 647.246 282.075 647.232 280.566C632.237 294.252 624.793 307.473 629.2 315.106C636.003 326.89 668.742 320.726 702.325 301.337Z" fill="white"/>
<path fill-rule="evenodd" clip-rule="evenodd" d="M649.681 274.946L649.732 280.544C649.744 281.937 649.991 285.339 650.426 287.594L650.661 288.808L649.838 289.732C646.526 293.449 644.272 296.812 643.12 299.615C641.951 302.459 642.082 304.279 642.721 305.386C643.381 306.529 644.974 307.583 648.211 307.963C651.391 308.336 655.661 307.982 660.792 306.844C671.023 304.574 684.109 299.315 697.561 291.548C711.012 283.782 722.11 275.079 729.192 267.353C732.742 263.479 735.184 259.958 736.45 257.018C737.74 254.025 737.624 252.118 736.964 250.975C736.37 249.945 735.027 248.987 732.365 248.526C729.724 248.069 726.163 248.18 721.82 248.935L720.668 249.135L719.776 248.38C718.869 247.612 716.465 245.691 714.239 244.251L709.596 241.249L714.917 239.746C723.826 237.23 731.908 236.063 738.4 236.503C744.8 236.937 750.294 238.998 752.976 243.644C755.197 247.49 754.91 252.134 753.172 256.826C751.429 261.536 748.102 266.662 743.609 271.893C734.606 282.372 720.543 293.706 703.574 303.502C686.606 313.299 669.759 319.812 656.182 322.368C649.406 323.644 643.304 323.962 638.352 323.117C633.421 322.276 629.255 320.203 627.034 316.356C624.167 311.39 625.425 305.133 628.734 298.93C632.102 292.615 637.933 285.668 645.546 278.72L649.681 274.946ZM718.786 241.301C734.751 237.3 746.952 238.21 750.811 244.894C757.615 256.678 735.906 281.949 702.324 301.337C668.742 320.726 636.003 326.89 629.199 315.106C625.034 307.892 631.455 295.687 644.831 282.815C645.608 282.067 646.409 281.318 647.232 280.566C647.238 281.291 647.301 282.488 647.416 283.806C647.54 285.233 647.727 286.802 647.972 288.069C641.153 295.721 638.158 302.482 640.556 306.636C645.509 315.214 671.59 309.429 698.811 293.713C726.031 277.998 744.081 258.303 739.129 249.725C736.897 245.859 730.375 244.91 721.391 246.472C720.804 245.974 719.631 245.026 718.267 244.015C717.419 243.387 716.497 242.734 715.596 242.152C716.675 241.847 717.738 241.564 718.786 241.301Z" fill="#12C6FF"/>
<path fill-rule="evenodd" clip-rule="evenodd" d="M748.311 243.644C755.115 255.428 733.407 280.699 699.824 300.087C672.012 316.145 644.778 323.132 632.376 318.365C643.257 325.365 672.458 318.581 702.324 301.337C735.906 281.949 757.615 256.678 750.811 244.894C749.642 242.869 747.707 241.374 745.135 240.385C746.489 241.256 747.559 242.34 748.311 243.644ZM719.681 245.09C720.418 245.665 721.021 246.158 721.392 246.472C727.007 245.496 731.661 245.5 734.906 246.585C731.944 244.421 726.578 243.987 719.681 245.09ZM647.518 284.868C646.812 285.487 646.047 286.194 645.472 286.819C640.184 292.563 635.658 301.231 638.056 305.385C638.893 306.835 640.333 307.874 642.279 308.525C641.559 307.998 640.98 307.369 640.556 306.635C638.158 302.481 641.153 295.721 647.972 288.069C647.787 287.111 647.635 285.98 647.518 284.868Z" fill="#12C6FF"/>
<path fill-rule="evenodd" clip-rule="evenodd" d="M736.191 241.616C733.128 241.424 729.745 241.777 726.635 242.345C726.295 242.407 725.97 242.182 725.908 241.842C725.846 241.502 726.071 241.177 726.41 241.115C729.576 240.537 733.068 240.167 736.268 240.369C739.455 240.569 742.443 241.341 744.51 243.133C744.771 243.359 744.798 243.754 744.573 244.014C744.347 244.275 743.952 244.303 743.691 244.077C741.93 242.549 739.267 241.81 736.191 241.616Z" fill="#12C6FF"/>
<path fill-rule="evenodd" clip-rule="evenodd" d="M674.032 311.51C674.32 312.138 674.044 312.88 673.416 313.168C662.707 318.076 649.584 319.555 644.333 319.687C643.643 319.705 643.07 319.159 643.052 318.469C643.035 317.779 643.58 317.205 644.27 317.188C649.333 317.06 662.085 315.611 672.375 310.895C673.002 310.607 673.744 310.883 674.032 311.51Z" fill="white"/>
<path d="M719.218 270.636C719.218 271.887 718.204 272.902 716.953 272.902C715.702 272.902 714.687 271.887 714.687 270.636C714.687 269.385 715.702 268.37 716.953 268.37C718.204 268.37 719.218 269.385 719.218 270.636ZM681.737 250.072C681.737 251.323 680.722 252.337 679.471 252.337C678.22 252.337 677.206 251.323 677.206 250.072C677.206 248.82 678.22 247.806 679.471 247.806C680.722 247.806 681.737 248.82 681.737 250.072ZM665.24 267.355C665.24 268.606 664.226 269.62 662.975 269.62C661.723 269.62 660.709 268.606 660.709 267.355C660.709 266.104 661.723 265.089 662.975 265.089C664.226 265.089 665.24 266.104 665.24 267.355ZM676.412 290.167C676.412 292.109 674.838 293.683 672.896 293.683C670.955 293.683 669.381 292.109 669.381 290.167C669.381 288.226 670.955 286.652 672.896 286.652C674.838 286.652 676.412 288.226 676.412 290.167ZM692.218 267.12C692.218 269.062 690.644 270.636 688.702 270.636C686.76 270.636 685.186 269.062 685.186 267.12C685.186 265.179 686.76 263.605 688.702 263.605C690.644 263.605 692.218 265.179 692.218 267.12ZM709.568 252.337C709.568 254.279 707.994 255.853 706.052 255.853C704.11 255.853 702.536 254.279 702.536 252.337C702.536 250.396 704.11 248.822 706.052 248.822C707.994 248.822 709.568 250.396 709.568 252.337ZM703.898 286.652C703.898 288.593 702.324 290.167 700.382 290.167C698.441 290.167 696.867 288.593 696.867 286.652C696.867 284.71 698.441 283.136 700.382 283.136C702.324 283.136 703.898 284.71 703.898 286.652Z" fill="#12C6FF"/>
</g>
<defs>
<radialGradient id="paint0_radial_611_2" cx="0" cy="0" r="1" gradientUnits="userSpaceOnUse" gradientTransform="translate(66.2688 1001.57) scale(1300.1)">
<stop offset="0.09" stop-color="#21FAED"/>
<stop offset="0.78" stop-color="#2D53D8"/>
</radialGradient>
<radialGradient id="paint1_radial_611_2" cx="0" cy="0" r="1" gradientUnits="userSpaceOnUse" gradientTransform="translate(709.291 968.684) scale(1144.1)">
<stop offset="0.166667" stop-color="#8C3AAA"/>
<stop offset="0.64" stop-color="#8C3AAA" stop-opacity="0"/>
<stop offset="0.973958" stop-color="#8C3AAA"/>
</radialGradient>
<clipPath id="clip0_611_2">
<rect width="1024" height="1024" fill="white"/>
</clipPath>
</defs>
</svg>
