<svg xmlns="http://www.w3.org/2000/svg" data-name="Layer 1" viewBox="0 0 168 168"><path fill="#2d4356" d="M28 124.5H66.15472a41.49639 41.49639 0 0 1-6.76141-4H28a3.99519 3.99519 0 0 1-4-3.98242V56.48236A3.99514 3.99514 0 0 1 28 52.5H59.43018a42.07084 42.07084 0 0 1 6.75079-4H28a7.9904 7.9904 0 0 0-8 7.98236v60.03522A7.99107 7.99107 0 0 0 28 124.5zM140 52.5a3.99518 3.99518 0 0 1 4 3.98236v60.03522A3.99523 3.99523 0 0 1 140 120.5H108.58594a41.73938 41.73938 0 0 1-6.77972 4H140a7.99162 7.99162 0 0 0 8-7.98242V56.48236A7.99094 7.99094 0 0 0 140 48.5H101.808a42.08492 42.08492 0 0 1 6.7583 4zM141 19.5a3 3 0 1 0-3-3A3.00344 3.00344 0 0 0 141 19.5zm0-4.5a1.5 1.5 0 1 1-1.5 1.5A1.50148 1.50148 0 0 1 141 15zM113 42.5a3 3 0 1 0-3-3A3.00344 3.00344 0 0 0 113 42.5zm0-4.5a1.5 1.5 0 1 1-1.5 1.5A1.50148 1.50148 0 0 1 113 38zM62 8.5a3 3 0 1 0-3-3A3.00344 3.00344 0 0 0 62 8.5zM62 4a1.5 1.5 0 1 1-1.5 1.5A1.50148 1.50148 0 0 1 62 4zM159 61.5a3 3 0 1 0-3 3A3.00344 3.00344 0 0 0 159 61.5zm-4.5 0A1.5 1.5 0 1 1 156 63 1.50148 1.50148 0 0 1 154.5 61.5zM12 46.5a2 2 0 1 0 2 2A2.00229 2.00229 0 0 0 12 46.5zm0 3a1 1 0 1 1 1-1A1.001 1.001 0 0 1 12 49.5z"/><circle cx="2" cy="134.5" r="2" fill="#2d4356"/><path fill="#2d4356" d="M11 132.5H8a2 2 0 0 0 0 4h3a2 2 0 0 0 0-4zM160 132.5h-3a2 2 0 0 0 0 4h3a2 2 0 0 0 0-4z"/><circle cx="166" cy="134.5" r="2" fill="#2d4356"/><path fill="#2d4356" d="M150.72131,132.5H96v-9.93768a38.00774,38.00774,0,0,0,25.96478-34.59064L122,85.28906l-.0293-.23926A38.08611,38.08611,0,0,0,85.46777,48.5332L82.79,48.5l-.24017.03027A38.08147,38.08147,0,0,0,46.03516,85.02441L46,87.70605l.0293.23926A38.04743,38.04743,0,0,0,72,122.56812V132.5H17.27869a2.017,2.017,0,1,0,0,4H150.72131a2.017,2.017,0,1,0,0-4Zm-41.23694-23.56641a37.983,37.983,0,0,0-9.35156-6.22559A74.89254,74.89254,0,0,0,101.79,88.45117h16.10553A33.96325,33.96325,0,0,1,109.48438,108.93359Zm8.41113-24.38873H101.79A73.36628,73.36628,0,0,0,99.541,67.834a37.809,37.809,0,0,0,8.52435-5.2832A33.796,33.796,0,0,1,117.89551,84.54486Zm-12.88873-24.7207a33.87873,33.87873,0,0,1-6.64636,4.09875,34.74962,34.74962,0,0,0-5.23932-10.13385A34.10063,34.10063,0,0,1,105.00677,59.82416ZM85.95209,52.90137c3.42194,1.2373,6.58008,5.707,8.78717,12.4668a33.85214,33.85214,0,0,1-8.78717,1.67975Zm0,18.19629a37.86372,37.86372,0,0,0,9.88477-1.83105,73.35915,73.35915,0,0,1,1.90631,15.27826H85.95209Zm11.793,17.35352a75.01509,75.01509,0,0,1-1.34857,12.74219A37.89406,37.89406,0,0,0,85.9541,99.17188l-.002-10.7207Zm-11.793,14.77344a33.84793,33.84793,0,0,1,9.52148,1.93256c-2.21381,8.19244-5.6416,13.55859-9.52148,14.94141ZM82.04791,52.90039V67.04791a33.82933,33.82933,0,0,1-8.78723-1.68073C75.46967,58.60547,78.626,54.13666,82.04791,52.90039ZM71.60547,101.19531a75.15252,75.15252,0,0,1-1.34869-12.74414H82.04791v10.7207A37.79069,37.79069,0,0,0,71.60547,101.19531Zm10.44244,2.0293v16.874c-3.8819-1.3847-7.30963-6.75092-9.51965-14.94141A33.79415,33.79415,0,0,1,82.04791,103.22461ZM70.25677,84.54486a73.08364,73.08364,0,0,1,1.9043-15.27631,37.96683,37.96683,0,0,0,9.88483,1.8291l.002,13.4472Zm4.626-30.7558A34.66161,34.66161,0,0,0,69.6416,63.92291a33.92773,33.92773,0,0,1-6.64655-4.09875A34.0763,34.0763,0,0,1,74.88281,53.78906Zm-14.94824,8.7627A37.94489,37.94489,0,0,0,68.459,67.833,73.60947,73.60947,0,0,0,66.21,84.54486H50.10638A33.77608,33.77608,0,0,1,59.93457,62.55176ZM50.10638,88.45117H66.21A74.66047,74.66047,0,0,0,67.87109,102.708a37.9097,37.9097,0,0,0-9.35352,6.22559A33.94192,33.94192,0,0,1,50.10638,88.45117ZM61.373,111.80859a34.04657,34.04657,0,0,1,7.51367-5.09772A37.08206,37.08206,0,0,0,74.87891,119.208,33.976,33.976,0,0,1,61.373,111.80859ZM92,132.5H76v-8H92Zm1.11908-13.292a37.072,37.072,0,0,0,5.9942-12.49713,34.04694,34.04694,0,0,1,7.51373,5.09772A33.94722,33.94722,0,0,1,93.11908,119.208Z"/><polygon fill="#0bceb2" points="12.661 75.465 14.424 73.144 13.31 72.513 12.178 75.112 12.141 75.112 10.99 72.532 9.857 73.181 11.602 75.446 11.602 75.483 8.873 75.131 8.873 76.393 11.621 76.04 11.621 76.077 9.857 78.342 10.915 79.01 12.122 76.393 12.159 76.393 13.273 78.992 14.443 78.323 12.661 76.096 12.661 76.059 15.463 76.393 15.463 75.131 12.661 75.502 12.661 75.465"/><polygon fill="#0bceb2" points="28.903 28.52 30.386 26.57 29.45 26.039 28.498 28.223 28.466 28.223 27.5 26.055 26.547 26.601 28.014 28.505 28.014 28.536 25.72 28.239 25.72 29.3 28.029 29.004 28.029 29.035 26.547 30.938 27.436 31.5 28.451 29.3 28.482 29.3 29.418 31.484 30.401 30.923 28.903 29.05 28.903 29.019 31.259 29.3 31.259 28.239 28.903 28.551 28.903 28.52"/><polygon fill="#0bceb2" points="93.777 14.567 92.92 15.666 93.434 15.99 94.02 14.72 94.038 14.72 94.578 15.981 95.146 15.657 94.281 14.575 94.281 14.557 95.641 14.72 95.641 14.107 94.281 14.287 94.281 14.269 95.137 13.143 94.597 12.837 94.047 14.098 94.029 14.098 93.471 12.845 92.92 13.161 93.768 14.26 93.768 14.278 92.443 14.107 92.443 14.72 93.777 14.549 93.777 14.567"/><polygon fill="#0bceb2" points="150 39.022 150 38.362 148.534 38.556 148.534 38.536 149.457 37.322 148.874 36.992 148.281 38.352 148.262 38.352 147.66 37.002 147.067 37.342 147.98 38.527 147.98 38.546 146.552 38.362 146.552 39.022 147.99 38.838 147.99 38.857 147.067 40.042 147.62 40.392 148.252 39.022 148.271 39.022 148.854 40.382 149.466 40.032 148.534 38.867 148.534 38.847 150 39.022"/><polygon fill="#0bceb2" points="65.734 32.504 64.581 33.985 65.272 34.422 66.062 32.71 66.086 32.71 66.814 34.41 67.579 33.973 66.414 32.516 66.414 32.492 68.247 32.71 68.247 31.885 66.414 32.128 66.414 32.103 67.568 30.586 66.839 30.174 66.099 31.873 66.074 31.873 65.322 30.185 64.581 30.61 65.722 32.092 65.722 32.116 63.937 31.885 63.937 32.71 65.734 32.48 65.734 32.504"/><path fill="#0bceb2" d="M118.15387 141.5h-8.30774a2.00641 2.00641 0 0 0 0 4h8.30774a2.00641 2.00641 0 0 0 0-4zM58.15387 141.5H49.84613a2.00641 2.00641 0 0 0 0 4h8.30774a2.00641 2.00641 0 0 0 0-4zM104 141.5H64a2 2 0 0 0 0 4H79.94v2H72a2 2 0 0 0 0 4H97a2 2 0 0 0 0-4H88.06v-2H104a2 2 0 0 0 0-4z"/></svg>